<?xml version="1.0" standalone="no"?>
<!DOCTYPE svg PUBLIC "-//W3C//DTD SVG 20010904//EN"
 "http://www.w3.org/TR/2001/REC-SVG-20010904/DTD/svg10.dtd">
<svg version="1.0" xmlns="http://www.w3.org/2000/svg"
 width="628.000000pt" height="143.000000pt" viewBox="0 0 628.000000 143.000000"
 preserveAspectRatio="xMidYMid meet">

<g transform="translate(0.000000,143.000000) scale(0.100000,-0.100000)"
fill="#000000" stroke="none">
<path d="M0 715 l0 -715 3140 0 3140 0 0 715 0 715 -3140 0 -3140 0 0 -715z
m1390 250 l0 -65 -105 0 -105 0 0 65 0 65 105 0 105 0 0 -65z m3700 0 l0 -66
-107 3 -108 3 -3 49 c-5 77 -6 76 113 76 l105 0 0 -65z m-2120 34 c155 -25
249 -108 267 -234 l6 -45 -117 0 c-110 0 -116 1 -116 20 0 94 -140 141 -220
74 -36 -31 -55 -112 -45 -193 13 -105 51 -141 149 -141 67 0 112 32 122 86 l6
34 110 0 111 0 -6 -45 c-13 -90 -71 -165 -162 -207 -44 -20 -65 -23 -185 -23
-171 0 -222 15 -296 89 -54 55 -78 108 -90 203 -8 62 10 172 36 222 66 128
237 192 430 160z m950 1 c208 -27 322 -165 307 -368 -12 -154 -98 -260 -242
-297 -73 -19 -233 -19 -300 -1 -99 26 -180 87 -218 161 -23 47 -39 153 -32
215 8 73 57 172 103 210 44 36 125 68 202 79 76 12 94 12 180 1z m-2952 -91
l-3 -74 -177 -3 -178 -2 0 -55 0 -54 151 -3 151 -3 0 -70 0 -70 -151 -3 -151
-3 0 -119 0 -120 -120 0 -120 0 0 330 0 330 293 2 c160 2 296 0 300 -3 4 -3 7
-39 5 -80z m959 4 c29 -43 57 -78 63 -78 5 0 34 35 62 78 l53 78 128 2 c70 1
127 -1 127 -4 0 -4 -52 -75 -115 -158 l-115 -152 122 -162 c66 -89 125 -168
131 -175 7 -9 -21 -12 -134 -12 l-144 0 -65 100 c-36 55 -68 100 -71 100 -3 0
-36 -45 -73 -100 l-66 -100 -130 0 c-72 0 -130 1 -130 3 0 2 58 81 129 176
l130 172 -115 150 c-63 82 -114 152 -114 156 0 5 62 7 137 6 l138 -1 52 -79z
m3904 -91 c68 -42 74 -63 77 -289 l3 -203 -105 0 -105 0 -3 171 c-3 168 -3
171 -28 191 -29 23 -81 19 -111 -8 -17 -15 -19 -34 -19 -186 l0 -168 -110 0
-110 0 0 255 0 255 89 0 89 0 6 -35 7 -35 33 25 c54 41 104 55 182 51 51 -2
81 -9 105 -24z m-4441 -237 l0 -255 -105 0 -105 0 0 255 0 255 105 0 105 0 0
-255z m3700 0 l0 -255 -110 0 -110 0 0 248 c0 137 3 252 7 255 3 4 53 7 110 7
l103 0 0 -255z m-450 -160 l0 -95 -115 0 -115 0 0 95 0 95 115 0 115 0 0 -95z"/>
<path d="M3775 840 c-17 -5 -44 -23 -60 -40 -28 -29 -30 -37 -33 -124 -4 -107
8 -144 61 -177 26 -16 45 -19 99 -17 58 3 71 8 98 33 38 36 54 92 47 170 -8
106 -47 150 -139 160 -24 2 -57 0 -73 -5z"/>
</g>
</svg>
